<svg width="28" height="29" viewBox="0 0 28 29" fill="none" xmlns="http://www.w3.org/2000/svg">
<path d="M0.64 28V-1.90735e-06H12.16C13.92 -1.90735e-06 15.4667 0.359998 16.8 1.08C18.16 1.77333 19.2133 2.76 19.96 4.04C20.7333 5.32 21.12 6.84 21.12 8.6V9.16C21.12 10.8933 20.72 12.4133 19.92 13.72C19.1467 15 18.08 16 16.72 16.72C15.3867 17.4133 13.8667 17.76 12.16 17.76H5.92V28H0.64ZM5.92 12.96H11.64C12.8933 12.96 13.9067 12.6133 14.68 11.92C15.4533 11.2267 15.84 10.28 15.84 9.08V8.68C15.84 7.48 15.4533 6.53333 14.68 5.84C13.9067 5.14667 12.8933 4.8 11.64 4.8H5.92V12.96ZM23.3144 28.56C22.2477 28.56 21.341 28.2133 20.5944 27.52C19.8744 26.8 19.5144 25.88 19.5144 24.76C19.5144 23.64 19.8744 22.7333 20.5944 22.04C21.341 21.32 22.2477 20.96 23.3144 20.96C24.4077 20.96 25.3144 21.32 26.0344 22.04C26.7544 22.7333 27.1144 23.64 27.1144 24.76C27.1144 25.88 26.7544 26.8 26.0344 27.52C25.3144 28.2133 24.4077 28.56 23.3144 28.56Z" fill="black"/>
</svg>
